<?xml version="1.0" encoding="UTF-8" standalone="no"?>
<svg
   version="1.1"
   id="Layer_1"
   x="0px"
   y="0px"
   width="221.83333"
   viewBox="0 0 221.83333 52.16666"
   enable-background="new 0 0 1331 313"
   xml:space="preserve"
   sodipodi:docname="banner_smph.svg"
   height="52.16666"
   inkscape:version="1.2.2 (732a01da63, 2022-12-09)"
   xmlns:inkscape="http://www.inkscape.org/namespaces/inkscape"
   xmlns:sodipodi="http://sodipodi.sourceforge.net/DTD/sodipodi-0.dtd"
   xmlns="http://www.w3.org/2000/svg"
   xmlns:svg="http://www.w3.org/2000/svg"><defs
   id="defs153" /><sodipodi:namedview
   id="namedview151"
   pagecolor="#ffffff"
   bordercolor="#000000"
   borderopacity="0.25"
   inkscape:showpageshadow="2"
   inkscape:pageopacity="0.0"
   inkscape:pagecheckerboard="0"
   inkscape:deskcolor="#d1d1d1"
   showgrid="false"
   inkscape:zoom="0.74680691"
   inkscape:cx="673.53421"
   inkscape:cy="-79.672535"
   inkscape:window-width="1132"
   inkscape:window-height="961"
   inkscape:window-x="0"
   inkscape:window-y="0"
   inkscape:window-maximized="0"
   inkscape:current-layer="Layer_1" />
<path
   fill="#000101"
   opacity="1"
   stroke="none"
   d="m 149.33333,52.16666 c -49.833325,0 -99.583325,0 -149.3333211666667,0 C 4.3333333e-6,34.77778 4.3333333e-6,17.3889 0,10e-6 c 73.944427,0 147.88886,0 221.8333,-1e-5 2e-5,17.38886 2e-5,34.77773 3e-5,52.16663 -24.1389,3e-5 -48.27776,3e-5 -72.5,3e-5 M 121.56893,20.6831 c -0.68981,-0.006 -1.37961,-0.0116 -2.09716,-0.17168 0.004,-2.40143 -0.001,-4.80293 0.016,-7.20426 0.008,-1.15965 0.63595,-1.95186 1.77977,-2.14261 0.64366,-0.10735 1.32626,-0.10964 1.97534,-0.0296 1.41494,0.17443 2.00907,0.89414 2.03864,2.33137 0.009,0.45933 0.001,0.91901 0.001,1.35488 0.78938,0 1.46633,0 2.17936,0 0,-0.72058 0.046,-1.38369 -0.009,-2.03828 -0.1363,-1.61965 -1.00262,-2.7249 -2.53095,-3.25284 -1.38866,-0.47968 -2.83139,-0.51559 -4.25852,-0.21168 -2.21988,0.47272 -3.09148,1.45588 -3.43585,3.71327 0.0171,0.16245 0.0342,0.32491 0.0261,0.63699 0.004,0.40891 0.0155,0.81793 0.01,1.2267 -0.0285,1.95238 -0.0619,3.90469 -0.24882,5.84009 -2.10229,0.01 -4.2046,0.0194 -6.37873,-0.13301 -0.006,-2.47914 0.0153,-4.95873 -0.0264,-7.43727 -0.029,-1.7211 -0.87999,-2.93515 -2.49237,-3.56885 -1.4372,-0.56485 -2.93639,-0.55099 -4.42308,-0.30445 -2.2544,0.37385 -3.28336,1.47966 -3.63289,3.73985 0.0171,0.16245 0.0341,0.32491 0.0194,0.66162 3.3e-4,2.3297 6.7e-4,4.6594 -0.142598,7.01634 -1.048544,0.006 -2.097087,0.0109 -3.14562,0.0185 -2.537059,0.0183 -5.074117,0.0379 -7.664652,-0.11124 -0.004,-1.86059 -0.02256,-3.7213 -0.0065,-5.58171 0.0095,-1.09712 0.238545,-2.14391 0.939411,-3.03322 0.63737,-0.80875 1.60197,-1.16536 2.422304,-0.83537 0.865285,0.34808 0.953023,1.13664 0.96522,1.93283 0.01027,0.67136 0.0021,1.343 0.0021,1.99484 0.807059,0 1.433035,0 2.048675,0 0,-0.97012 0.05305,-1.89752 -0.01162,-2.81662 -0.115977,-1.64838 -1.076264,-2.74016 -2.581564,-3.04858 -1.74415,-0.35736 -2.903248,0.17921 -3.73763,1.7313 -0.1386,0.25782 -0.273905,0.51742 -0.367645,0.6947 -0.810871,-0.60686 -0.139821,-2.33736 -1.916116,-2.3473 0,1.608 0.0079,3.1309 -0.0019,4.65369 -0.01462,2.27445 -0.04172,4.54883 -0.211792,6.78149 -0.913046,-0.005 -1.826335,0.001 -2.739085,-0.0179 -1.183761,-0.0249 -2.367101,-0.0702 -3.499018,-0.26809 0.0719,-0.38087 0.202188,-0.76116 0.205973,-1.14271 0.02039,-2.05533 0.05647,-4.11237 -0.005,-6.16607 -0.05392,-1.80228 -1.234024,-3.34678 -3.015452,-3.57733 -2.148622,-0.27806 -4.33959,-0.22891 -6.56661,-0.32371 0,0.96955 0.0033,1.74331 -5e-4,2.51703 -0.01512,2.99816 -0.03252,5.99631 -0.203623,8.97274 -5.988379,0 -11.976757,0 -17.945735,0 0,6.91875 0,13.7322 0,20.52103 54.673907,0 109.279387,0 163.890717,0 0,-6.8535 0,-13.64642 0,-20.47988 -0.25295,-0.0185 -0.46943,-0.048 -0.6859,-0.0481 -6.02571,-0.002 -12.05143,-0.003 -18.07715,0.002 -0.2451,1.7e-4 -0.49013,0.0554 -0.84368,0.0298 -1.78608,-1.65371 -3.59353,-3.28511 -5.3498,-4.96989 -0.98357,-0.94351 -1.08927,-2.18329 -0.66605,-3.38569 0.41103,-1.16782 1.50768,-1.33477 2.59938,-1.35071 0.30252,-0.004 0.60854,0.0198 0.90819,0.0636 1.41658,0.20701 2.02268,0.9021 2.0376,2.33448 0.008,0.81933 0.002,1.63882 0.002,2.43812 0.81454,0 1.49377,0 2.22019,0 0,-1.02392 0.0726,-1.99644 -0.0148,-2.95433 -0.1906,-2.08617 -1.19613,-3.28908 -3.271,-3.59123 -1.2868,-0.18739 -2.66438,-0.14289 -3.9432,0.10133 -1.77673,0.33931 -2.7646,1.66627 -2.90815,3.48483 -0.1408,1.78355 0.39794,3.30948 1.7469,4.54333 1.16254,1.06331 2.27695,2.1792 3.24199,3.25262 -4.06037,-4e-5 -8.1207,-0.002 -12.18107,0.004 -0.32667,5e-4 -0.65322,0.0554 -1.08832,0.0299 -1.78608,-1.65371 -3.59353,-3.28511 -5.34981,-4.96989 -0.98355,-0.94351 -1.08929,-2.1833 -0.66605,-3.3857 0.41105,-1.16781 1.5077,-1.33477 2.5994,-1.3507 0.30251,-0.004 0.60853,0.0198 0.90818,0.0636 1.41658,0.207 2.02268,0.9021 2.0376,2.33448 0.008,0.81933 0.002,1.63882 0.002,2.43812 0.81453,0 1.49376,0 2.22018,0 0,-1.02392 0.0726,-1.99644 -0.0148,-2.95433 -0.19059,-2.08617 -1.19612,-3.28908 -3.27099,-3.59123 -1.2868,-0.18739 -2.66438,-0.1429 -3.9432,0.10133 -1.77673,0.33931 -2.7646,1.66626 -2.90815,3.48482 -0.1408,1.78356 0.39794,3.30949 1.7469,4.54333 1.16254,1.06331 2.27695,2.17921 3.24199,3.25263 -3.66217,-5e-5 -7.32435,-0.007 -10.98648,0.002 -2.04057,0.005 -4.08108,0.0355 -6.17745,-0.13858 0.0502,-0.18327 0.10044,-0.36653 0.27192,-0.49549 1.64412,-0.0148 3.28824,-0.0297 5.06108,-0.15249 0,-0.57382 0,-1.14764 0,-1.81162 -1.81501,0 -3.57127,0 -5.31407,0 0,-2.33881 0,-4.58465 0,-6.91682 2.18729,0 4.3484,0 6.54033,0 0,-0.65737 0,-1.22863 0,-1.84126 -2.91724,0 -5.81801,0 -8.79883,0 0,1.54864 0.008,3.06869 -0.002,4.58864 -0.0146,2.27408 -0.0416,4.54809 -0.2117,6.78022 -6.74882,-0.005 -13.49765,-0.009 -20.24647,-0.0114 -0.13676,-4e-5 -0.27352,0.0349 -0.46376,-0.11474 -0.004,-1.86059 -0.0225,-3.7213 -0.006,-5.58171 0.009,-1.09712 0.23852,-2.14391 0.9394,-3.03322 0.63737,-0.80876 1.60197,-1.16538 2.4223,-0.83537 0.86529,0.34808 0.95304,1.13664 0.96524,1.93283 0.0103,0.67136 0.002,1.343 0.002,1.99483 0.80706,0 1.43304,0 2.04868,0 0,-0.97012 0.0531,-1.89751 -0.0116,-2.81662 -0.11598,-1.64837 -1.07628,-2.74015 -2.58158,-3.04858 -1.74415,-0.35735 -2.90324,0.17921 -3.73764,1.7313 -0.1386,0.25782 -0.27388,0.51743 -0.36762,0.69472 -0.81088,-0.60687 -0.13983,-2.33737 -1.91613,-2.34731 0,1.608 0.008,3.1309 -0.002,4.65368 -0.0146,2.27446 -0.0417,4.54883 -0.2118,6.78149 -2.26529,0.008 -4.53057,0.0155 -6.84557,-0.14304 0,-0.57019 0,-1.14038 0,-1.73153 -1.92661,0 -3.75972,0 -5.61607,0 0,0.63293 0,1.23054 -0.073,1.83205 0,0 -0.0712,0.0168 -0.2338,-0.0173 M 78.417538,44.68115 c -8.512924,0 -17.025854,0 -25.537455,0 0,0.8882 0,1.65379 0,2.44309 54.657647,0 109.268797,0 163.892067,0 0,-0.82883 0,-1.61265 0,-2.44308 -46.10439,0 -92.14616,0 -138.354612,-10e-6 M 28.520767,18.25531 c 0.22978,0.15149 0.406336,0.49219 0.719981,0.0458 1.572859,-2.23836 3.168814,-4.46049 4.782587,-6.72472 -2.35438,-1.65287 -4.671847,-3.27982 -7.030043,-4.93537 -1.679342,2.35435 -3.308534,4.63839 -4.959652,6.95318 2.168538,1.55356 4.281187,3.06709 6.487127,4.66108 M 39.116672,7.58336 c 0,1.81925 0,3.63849 0,5.47566 2.917248,0 5.725675,0 8.549288,0 0,-2.86736 0,-5.67779 0,-8.49919 -2.865662,0 -5.680438,0 -8.549292,0 0,0.98079 0,1.91887 4e-6,3.02353 m 0.940505,17.7767 c -1.160222,-1.53048 -2.320447,-3.06095 -3.515724,-4.63767 -2.317088,1.74835 -4.573888,3.45121 -6.83019,5.15369 1.754807,2.31484 3.454185,4.55656 5.165167,6.81358 2.297898,-1.73092 4.542457,-3.42165 6.821758,-5.13856 -0.54338,-0.72974 -1.053403,-1.41467 -1.641011,-2.19104 M 33.73834,38.684 c -2.455618,0 -4.911235,0 -7.35125,0 0,2.88859 0,5.67255 0,8.44784 2.845383,0 5.63676,0 8.453547,0 0,-2.81708 0,-5.59916 0,-8.44784 -0.340279,0 -0.639655,0 -1.102297,0 m -9.522657,1.2409 c 0,-0.40212 0,-0.80423 0,-1.19582 -2.912791,0 -5.703548,0 -8.505269,0 0,2.83932 0,5.6331 0,8.39241 2.876361,0 5.672106,0 8.505269,0 0,-2.37411 0,-4.70318 0,-7.19659 M 4.9509753,40.08919 c 0,2.34358 0,4.68716 0,7.03698 2.9144275,0 5.7306607,0 8.5478237,0 0,-2.82311 0,-5.60536 0,-8.39799 -2.865777,0 -5.6811435,0 -8.5478248,0 0,0.42806 0,0.81234 1.1e-6,1.36101 M 24.215228,30.25081 c 0,-0.73616 0,-1.47232 0,-2.1908 -2.911988,0 -5.722583,0 -8.517786,0 0,2.86176 0,5.66344 0,8.44877 2.860825,0 5.653235,0 8.517786,0 0,-2.05651 0,-4.0741 0,-6.25797 M 4.9514588,28.59612 c 0,2.62863 0,5.25727 0,7.90939 2.9002982,0 5.7157772,0 8.5395892,0 0,-2.8523 0,-5.66116 0,-8.50529 -2.720054,0 -5.3828207,-0.008 -8.0452543,0.0185 -0.1660365,0.002 -0.3294575,0.26915 -0.4943349,0.57742 m 1.967229,-11.26263 c -0.650535,0 -1.30107,0 -1.9149825,0 0,2.91779 0,5.70983 0,8.49557 2.868101,0 5.6835977,0 8.5101887,0 0,-2.84443 0,-5.63589 0,-8.49557 -2.165732,0 -4.2975207,0 -6.5952062,0 M 147.99087,13.66807 c -0.0791,0.093 -0.22553,0.18483 -0.22709,0.27909 -0.0166,1.00528 -0.0103,2.01093 -0.0103,3.01674 0.98102,0 1.88492,0 2.82314,0 0,-1.10293 0,-2.16733 0,-3.29927 -0.83737,0 -1.63418,0 -2.58571,0.003 z"
   id="path82"
   style="fill:none;stroke-width:0.166667" />
<path
   fill="#02acb4"
   opacity="1"
   stroke="none"
   d="m 197.2941,20.8167 c 0.24508,-0.0296 0.49012,-0.0847 0.73522,-0.0849 6.02571,-0.005 12.05143,-0.004 18.07715,-0.002 0.21646,9e-5 0.43295,0.0296 0.6859,0.0481 0,6.83345 0,13.62637 0,20.47988 -54.61135,0 -109.21682,0 -163.890728,0 0,-6.78883 0,-13.60229 0,-20.52104 5.968978,0 11.957356,0 18.06369,0.0552 0.117956,2.85367 0.117956,5.65212 0.117956,8.47398 0.767562,0 1.43846,0 2.1819,0 0,-2.05809 0,-4.04974 0,-6.09945 1.013625,0 1.955855,0.0322 2.895125,-0.007 1.860072,-0.0773 3.421404,-0.68599 4.220724,-2.54154 1.183518,0.0365 2.366858,0.0818 3.55062,0.10675 0.91275,0.0192 1.826038,0.0129 2.848185,0.0998 0.1091,2.87003 0.1091,5.6582 0.1091,8.4531 0.790038,0 1.464751,0 2.205973,0 0,-1.62856 -0.01095,-3.20212 0.0035,-4.77544 0.01137,-1.23927 0.05404,-2.47825 0.0828,-3.71736 2.537059,-0.0191 5.074117,-0.0387 7.611175,-0.057 1.048534,-0.008 2.097077,-0.0124 3.23397,0.0431 0.0968,1.64044 0.0885,3.21959 0.11825,4.79802 0.0331,1.75622 1.08179,3.16372 2.78832,3.57758 0.95663,0.232 1.96807,0.34706 2.9526,0.33488 3.23466,-0.04 4.72736,-1.62197 4.7315,-4.85549 0.002,-1.28729 0.0588,-2.57451 0.0907,-3.86177 2.1023,-0.01 4.2046,-0.0194 6.43417,0.0204 0.13984,1.62877 0.12393,3.20894 0.17296,4.78711 0.0499,1.60493 0.74013,2.89911 2.30691,3.40774 1.05502,0.34249 2.2176,0.50315 3.32951,0.49203 2.97468,-0.0297 4.50666,-1.67147 4.52541,-4.64099 0.009,-1.35494 0.0424,-2.70971 0.0648,-4.06456 2.2653,-0.008 4.53058,-0.0155 6.90497,0.0586 0.1091,2.87003 0.1091,5.6582 0.1091,8.4531 0.79004,0 1.46475,0 2.20598,0 0,-1.62857 -0.0109,-3.20212 0.004,-4.77544 0.0114,-1.23927 0.054,-2.47825 0.0828,-3.71736 0.13676,-0.0186 0.27352,-0.0535 0.41028,-0.0535 6.74882,0.002 13.49765,0.007 20.35569,0.0933 0.10922,2.87366 0.10922,5.66542 0.10922,8.45411 3.10228,0 6.08206,0 9.04687,0 0,-0.6196 0,-1.18316 0,-1.8106 -2.29925,0 -4.5355,0 -6.75634,0 0,-2.27183 0,-4.47763 0,-6.68343 2.04053,-0.019 4.08104,-0.0496 6.1216,-0.0546 3.66214,-0.009 7.32433,-0.002 11.11129,0.0199 0.91967,0.79451 1.7835,1.50851 2.49507,2.3511 1.46992,1.74059 0.61803,4.14919 -1.58732,4.47883 -0.7435,0.11113 -1.55611,0.0184 -2.29478,-0.15825 -1.05372,-0.25201 -1.52923,-0.98235 -1.54775,-2.08612 -0.0138,-0.82637 -0.003,-1.65315 -0.003,-2.53907 -0.75716,0 -1.43171,0 -2.1446,0 0,1.02468 -0.0439,1.99554 0.0102,2.96092 0.0844,1.50821 0.79085,2.64562 2.22168,3.23 1.70717,0.69723 3.4746,0.68271 5.2291,0.23923 1.91224,-0.48338 2.80365,-1.76738 2.91982,-3.74544 0.11133,-1.89567 -0.66652,-3.3619 -1.91765,-4.66483 0.32663,-0.0296 0.65318,-0.0845 0.97985,-0.085 4.06037,-0.006 8.1207,-0.004 12.30587,0.0186 0.91966,0.79451 1.7835,1.50852 2.49506,2.3511 1.46992,1.74059 0.61804,4.1492 -1.58731,4.47882 -0.7435,0.11113 -1.55612,0.0184 -2.29479,-0.15824 -1.05371,-0.25201 -1.52925,-0.98235 -1.54775,-2.08612 -0.0138,-0.82637 -0.003,-1.65315 -0.003,-2.53907 -0.75717,0 -1.43172,0 -2.1446,0 0,1.02468 -0.0439,1.99554 0.0102,2.96093 0.0843,1.5082 0.79085,2.64561 2.22169,3.22998 1.70716,0.69724 3.4746,0.68273 5.2291,0.23924 1.91223,-0.48338 2.80363,-1.76738 2.9198,-3.74544 0.11133,-1.89568 -0.6665,-3.3619 -1.91764,-4.66483 m -46.76282,5.46541 c -0.0522,-0.0868 -0.10293,-0.24837 -0.15673,-0.24939 -0.84356,-0.0159 -1.68751,-0.0112 -2.49778,-0.0112 0,1.16093 0,2.21984 0,3.2592 0.91312,0 1.75666,0 2.67315,0 0,-0.98009 0,-1.90891 -0.0186,-2.99865 z"
   id="path84"
   style="stroke-width:0.166667" />
<path
   fill="#01abb3"
   opacity="1"
   stroke="none"
   d="m 78.499995,44.68095 c 46.125115,10e-6 92.166885,10e-6 138.271275,10e-6 0,0.83043 0,1.61425 0,2.44308 -54.62327,0 -109.23442,0 -163.892063,0 0,-0.7893 0,-1.55489 0,-2.44309 8.511601,0 17.024531,0 25.620788,0 z"
   id="path86"
   style="stroke-width:0.166667" />
<path
   fill="#eaebeb"
   opacity="1"
   stroke="none"
   d="m 110.67186,20.68345 c 0.004,1.36828 -0.0532,2.65551 -0.0548,3.9428 -0.004,3.23352 -1.49685,4.81545 -4.73151,4.85549 -0.98452,0.0122 -1.99597,-0.10288 -2.95259,-0.33488 -1.70654,-0.41387 -2.7552,-1.82136 -2.78832,-3.57759 -0.0298,-1.57842 -0.0214,-3.15757 -0.0465,-4.81162 -0.0169,-2.40494 -0.0172,-4.73464 0.0177,-7.18869 0.0224,-0.27113 0.01,-0.41792 -0.003,-0.56471 0.29802,-2.23275 1.32698,-3.33856 3.58137,-3.71241 1.4867,-0.24654 2.98589,-0.2604 4.42309,0.30445 1.61237,0.6337 2.46339,1.84775 2.49237,3.56885 0.0417,2.47854 0.0207,4.95813 0.0623,7.51831 m -2.21085,-6.39252 c -0.006,-0.27784 -0.0114,-0.55569 -0.0529,-0.98246 -0.11745,-1.20862 -0.56091,-1.88294 -1.66739,-2.06548 -0.90812,-0.14982 -1.87556,-0.14555 -2.78748,-0.0112 -0.98267,0.1448 -1.60572,0.89057 -1.61554,1.84531 -0.0264,2.56516 0.02,5.13107 -0.0417,7.81407 -6.6e-4,1.49016 -0.0259,2.98085 0.006,4.4703 0.0229,1.07069 0.58171,1.87225 1.57939,2.07074 0.82492,0.16412 1.7151,0.2272 2.54194,0.10398 1.40324,-0.20913 2.02837,-0.97604 2.03839,-2.39631 0.0239,-3.39353 -0.008,-6.78745 -0.0646,-10.37369 0.0156,-0.13019 0.0311,-0.26039 0.0639,-0.47527 z"
   id="path88"
   style="stroke-width:0.166667" />
<path
   fill="#eaebeb"
   opacity="1"
   stroke="none"
   d="m 127.51669,20.68307 c 0.002,1.43801 -0.0314,2.79278 -0.0399,4.14772 -0.0188,2.96952 -1.55074,4.61123 -4.52541,4.64099 -1.11192,0.0111 -2.2745,-0.14954 -3.32952,-0.49204 -1.56677,-0.50862 -2.25705,-1.8028 -2.30691,-3.40774 -0.049,-1.57816 -0.0331,-3.15833 -0.0953,-4.77864 -0.018,-1.99334 0.0154,-3.94565 0.0439,-5.89803 0.006,-0.40877 -0.006,-0.81779 0.0224,-1.33871 0.0192,-0.25877 0.006,-0.40553 -0.006,-0.55229 0.29278,-2.23008 1.16438,-3.21324 3.38426,-3.68596 1.42712,-0.30391 2.86985,-0.268 4.25851,0.21168 1.52833,0.52794 2.39466,1.63319 2.53096,3.25284 0.0551,0.65459 0.009,1.3177 0.009,2.03828 -0.71302,0 -1.38997,0 -2.17935,0 0,-0.43587 0.008,-0.89555 -0.001,-1.35488 -0.0296,-1.43723 -0.62371,-2.15694 -2.03864,-2.33137 -0.64908,-0.08 -1.33169,-0.0777 -1.97535,0.0296 -1.14381,0.19075 -1.77138,0.98296 -1.77976,2.14261 -0.0174,2.40133 -0.012,4.80283 -0.0123,7.32032 0.004,0.11606 0.0182,0.19512 8.4e-4,0.27252 -0.0187,1.51359 -0.0446,2.9503 -0.0143,4.38583 0.0271,1.28871 0.629,2.03973 1.8943,2.25312 0.66611,0.11233 1.38565,0.0953 2.05234,-0.0239 1.22926,-0.2198 1.87657,-1.03058 1.89243,-2.26019 0.019,-1.47071 -0.007,-2.942 -0.0312,-4.48188 -1.1299,-0.0758 -2.24146,-0.0828 -3.36643,-0.0962 -0.0134,-0.006 -0.0277,0.0197 -0.0277,0.0197 0,-0.59761 0,-1.19522 0,-1.82815 1.85635,0 3.68946,0 5.61607,0 0,0.59114 0,1.16133 0.0249,1.81469 z"
   id="path90"
   style="stroke-width:0.166667" />
<path
   fill="#e9eaea"
   opacity="1"
   stroke="none"
   d="m 180.5732,20.78915 c 1.30537,1.33047 2.08322,2.7967 1.97188,4.69238 -0.11616,1.97806 -1.00758,3.26206 -2.91981,3.74543 -1.7545,0.44349 -3.52194,0.45801 -5.2291,-0.23923 -1.43084,-0.58437 -2.13734,-1.72178 -2.22169,-3.22999 -0.054,-0.96538 -0.0102,-1.93624 -0.0102,-2.96092 0.71288,0 1.38743,0 2.1446,0 0,0.88591 -0.0112,1.7127 0.003,2.53907 0.0185,1.10377 0.49404,1.83411 1.54775,2.08612 0.73867,0.17666 1.55129,0.26938 2.29479,0.15825 2.20535,-0.32964 3.05723,-2.73824 1.58731,-4.47883 -0.71156,-0.84259 -1.5754,-1.55659 -2.40971,-2.34149 -1.17519,-1.10533 -2.2896,-2.22122 -3.45214,-3.28453 -1.34896,-1.23385 -1.8877,-2.75977 -1.7469,-4.54333 0.14355,-1.81856 1.13142,-3.14551 2.90815,-3.48482 1.27882,-0.24423 2.6564,-0.28872 3.9432,-0.10134 2.07487,0.30215 3.0804,1.50507 3.27099,3.59124 0.0875,0.95789 0.0148,1.93041 0.0148,2.95433 -0.72642,0 -1.40565,0 -2.22018,0 0,-0.79931 0.007,-1.6188 -0.002,-2.43813 -0.015,-1.43238 -0.62102,-2.12747 -2.0376,-2.33448 -0.29965,-0.0438 -0.60567,-0.068 -0.90818,-0.0636 -1.0917,0.0159 -2.18835,0.18289 -2.5994,1.3507 -0.42324,1.2024 -0.3175,2.44218 0.66605,3.38569 1.75628,1.68478 3.56373,3.31618 5.40405,4.99746 z"
   id="path92"
   style="stroke-width:0.166667" />
<path
   fill="#e9eaea"
   opacity="1"
   stroke="none"
   d="m 197.23987,20.78914 c 1.30536,1.33048 2.0832,2.79671 1.97186,4.69239 -0.11616,1.97806 -1.00756,3.26206 -2.9198,3.74543 -1.7545,0.4435 -3.52193,0.458 -5.2291,-0.23923 -1.43083,-0.58438 -2.13735,-1.72178 -2.22168,-3.22999 -0.054,-0.96538 -0.0102,-1.93624 -0.0102,-2.96092 0.71289,0 1.38744,0 2.1446,0 0,0.88591 -0.0112,1.7127 0.003,2.53907 0.0185,1.10377 0.49403,1.83411 1.54775,2.08612 0.73867,0.17666 1.55128,0.26937 2.29478,0.15824 2.20535,-0.32962 3.05724,-2.73823 1.58732,-4.47882 -0.71157,-0.84258 -1.5754,-1.55659 -2.40972,-2.34149 -1.17518,-1.10532 -2.2896,-2.22122 -3.45213,-3.28453 -1.34897,-1.23384 -1.8877,-2.75977 -1.7469,-4.54333 0.14355,-1.81856 1.13142,-3.14551 2.90815,-3.48482 1.27882,-0.24423 2.6564,-0.28873 3.9432,-0.10134 2.07487,0.30215 3.0804,1.50507 3.271,3.59123 0.0875,0.9579 0.0148,1.93042 0.0148,2.95434 -0.72641,0 -1.40565,0 -2.22018,0 0,-0.79931 0.007,-1.6188 -0.002,-2.43813 -0.015,-1.43238 -0.62101,-2.12747 -2.0376,-2.33448 -0.29965,-0.0438 -0.60566,-0.068 -0.90818,-0.0636 -1.0917,0.0159 -2.18835,0.18289 -2.59938,1.3507 -0.42322,1.2024 -0.31752,2.44218 0.66605,3.38569 1.75626,1.68478 3.56371,3.31618 5.40403,4.99745 z"
   id="path94"
   style="stroke-width:0.166667" />
<path
   fill="#eceded"
   opacity="1"
   stroke="none"
   d="m 80.406835,20.53764 c -0.825118,1.93622 -2.38645,2.54491 -4.246522,2.62221 -0.93927,0.039 -1.8815,0.007 -2.895125,0.007 0,2.04971 0,4.04136 0,6.09945 -0.74344,0 -1.414338,0 -2.1819,0 0,-2.82187 0,-5.62031 -0.04068,-8.46311 -0.02413,-3.04251 -0.0067,-6.04066 0.0084,-9.03882 0.0039,-0.77372 5e-4,-1.54748 5e-4,-2.51702 2.22702,0.0948 4.417989,0.0456 6.56661,0.3237 1.781429,0.23055 2.961532,1.77505 3.015452,3.57733 0.06144,2.0537 0.02536,4.11075 0.005,6.16607 -0.0038,0.38155 -0.134075,0.76184 -0.231777,1.22339 m -2.628327,0.12344 c 0.22518,-0.60474 0.612824,-1.2011 0.644542,-1.81582 0.08899,-1.72458 0.06181,-3.45743 0.02217,-5.18569 -0.03581,-1.56122 -0.701987,-2.22899 -2.381684,-2.4892 -0.914648,0.0306 -1.82929,0.0612 -2.777893,0.25393 0.0037,3.08807 0.0075,6.17614 -0.06378,9.35615 -0.07541,0.4401 0.11266,0.58796 0.549825,0.57001 0.774664,-0.0318 1.561209,0.0551 2.323552,-0.0487 0.542247,-0.0739 1.052948,-0.37926 1.683263,-0.64063 z"
   id="path96"
   style="stroke-width:0.166667" />
<path
   fill="#ececed"
   opacity="1"
   stroke="none"
   d="m 159.98567,20.68841 c 0.0279,2.30238 0.0279,4.50818 0.0279,6.78001 2.22084,0 4.4571,0 6.75634,0 0,0.62744 0,1.191 0,1.8106 -2.96481,0 -5.94459,0 -9.04686,0 0,-2.78869 0,-5.58045 -0.0351,-8.43315 -0.0133,-2.33498 0.0137,-4.60899 0.0283,-6.88307 0.01,-1.51995 0.002,-3.04001 0.002,-4.58865 2.98083,0 5.8816,0 8.79884,0 0,0.61264 0,1.1839 0,1.84127 -2.19193,0 -4.35304,0 -6.54033,0 0,2.33216 0,4.57801 0,6.91682 1.7428,0 3.49906,0 5.31407,0 0,0.66398 0,1.2378 -0.12086,1.84639 -1.76774,0.0443 -3.4146,0.0539 -5.06147,0.0634 -0.0502,0.18326 -0.10045,0.36653 -0.12275,0.64637 z"
   id="path98"
   style="stroke-width:0.166667" />
<path
   fill="#ebecec"
   opacity="1"
   stroke="none"
   d="m 28.474122,18.21508 c -2.159295,-1.55376 -4.271944,-3.06729 -6.440482,-4.62085 1.651118,-2.31479 3.28031,-4.59883 4.959652,-6.95318 2.358196,1.65555 4.675663,3.2825 7.030043,4.93537 -1.613773,2.26423 -3.209728,4.48636 -4.782587,6.72472 -0.313645,0.44636 -0.490201,0.10566 -0.766626,-0.0861 z"
   id="path100"
   style="stroke-width:0.166667" />
<path
   fill="#ebebec"
   opacity="1"
   stroke="none"
   d="m 39.116668,7.5001 c 0,-1.02137 0,-1.95945 0,-2.94024 2.868854,0 5.68363,0 8.549292,0 0,2.8214 0,5.63183 0,8.49919 -2.823613,0 -5.63204,0 -8.549288,0 0,-1.83717 0,-3.65641 -4e-6,-5.55895 z"
   id="path102"
   style="stroke-width:0.166667" />
<path
   fill="#ebecec"
   opacity="1"
   stroke="none"
   d="m 40.095973,25.4058 c 0.548812,0.73066 1.058835,1.41559 1.602215,2.14533 -2.279301,1.71691 -4.52386,3.40764 -6.821758,5.13856 -1.710982,-2.25702 -3.41036,-4.49874 -5.165167,-6.81358 2.256302,-1.70248 4.513102,-3.40534 6.83019,-5.15369 1.195277,1.57672 2.355502,3.10719 3.55452,4.68338 z"
   id="path104"
   style="stroke-width:0.166667" />
<path
   fill="#ededed"
   opacity="1"
   stroke="none"
   d="m 33.819972,38.68403 c 0.38101,0 0.680386,0 1.020665,0 0,2.84868 0,5.63076 0,8.44784 -2.816787,0 -5.608164,0 -8.453547,0 0,-2.77529 0,-5.55925 0,-8.44784 2.440015,0 4.895632,0 7.432882,0 z"
   id="path106"
   style="stroke-width:0.166667" />
<path
   fill="#ededed"
   opacity="1"
   stroke="none"
   d="m 24.215683,40.0071 c 0,2.41124 0,4.74031 0,7.11442 -2.833163,0 -5.628908,0 -8.505269,0 0,-2.75931 0,-5.55309 0,-8.39241 2.801721,0 5.592478,0 8.505269,0 0,0.39159 0,0.7937 0,1.27799 z"
   id="path108"
   style="stroke-width:0.166667" />
<path
   fill="#ededed"
   opacity="1"
   stroke="none"
   d="m 4.9509747,40.00702 c -5e-7,-0.46647 -5e-7,-0.85075 -5e-7,-1.27881 2.8666813,0 5.6820478,0 8.5478248,0 0,2.79263 0,5.57488 0,8.39799 -2.817163,0 -5.6333962,0 -8.5478237,0 0,-2.34982 0,-4.6934 -6e-7,-7.11918 z"
   id="path110"
   style="stroke-width:0.166667" />
<path
   fill="#eeeeee"
   opacity="1"
   stroke="none"
   d="m 24.215228,30.33398 c 0,2.10073 0,4.11832 0,6.17483 -2.864551,0 -5.656961,0 -8.517786,0 0,-2.78533 0,-5.58701 0,-8.44877 2.795203,0 5.605798,0 8.517786,0 0,0.71848 0,1.45464 0,2.27394 z"
   id="path112"
   style="stroke-width:0.166667" />
<path
   fill="#eeeeee"
   opacity="1"
   stroke="none"
   d="m 4.9515787,28.51389 c 0.1647575,-0.22604 0.3281785,-0.49356 0.494215,-0.49519 2.6624336,-0.0262 5.3252003,-0.0185 8.0452543,-0.0185 0,2.84413 0,5.65299 0,8.50529 -2.823812,0 -5.639291,0 -8.5395892,0 0,-2.65212 0,-5.28075 1.199e-4,-7.99162 z"
   id="path114"
   style="stroke-width:0.166667" />
<path
   fill="#eeeeee"
   opacity="1"
   stroke="none"
   d="m 7.0016358,17.33349 c 2.2147375,0 4.3465262,0 6.5122582,0 0,2.85968 0,5.65114 0,8.49557 -2.826591,0 -5.6420877,0 -8.5101887,0 0,-2.78574 0,-5.57778 0,-8.49557 0.6139125,0 1.2644475,0 1.9979305,0 z"
   id="path116"
   style="stroke-width:0.166667" />
<path
   fill="#ebecec"
   opacity="1"
   stroke="none"
   d="m 89.154475,20.70101 c -0.002,1.32322 -0.0447,2.5622 -0.05607,3.80147 -0.01445,1.57332 -0.0035,3.14687 -0.0035,4.77544 -0.741222,0 -1.415935,0 -2.205973,0 0,-2.7949 0,-5.58307 -0.03496,-8.43223 -0.01317,-2.3354 0.01393,-4.60978 0.02855,-6.88423 0.0098,-1.52279 0.0019,-3.04569 0.0019,-4.65369 1.776295,0.01 1.105245,1.74044 1.916117,2.3473 0.09374,-0.17728 0.229045,-0.43688 0.367645,-0.6947 0.834381,-1.55209 1.99348,-2.08866 3.73763,-1.7313 1.5053,0.30842 2.465586,1.4002 2.581563,3.04858 0.06467,0.9191 0.01162,1.8465 0.01162,2.81662 -0.61564,0 -1.241617,0 -2.048675,0 0,-0.65184 0.0082,-1.32348 -0.0021,-1.99484 -0.0122,-0.79619 -0.09994,-1.58475 -0.96522,-1.93283 -0.820333,-0.32999 -1.784933,0.0266 -2.422303,0.83537 -0.700867,0.88931 -0.929922,1.9361 -0.939412,3.03322 -0.01607,1.86041 0.0025,3.72112 0.03323,5.66582 z"
   id="path118"
   style="stroke-width:0.166667" />
<path
   fill="#ebecec"
   opacity="1"
   stroke="none"
   d="m 136.82114,20.70101 c -0.002,1.32322 -0.0447,2.5622 -0.0561,3.80147 -0.0144,1.57332 -0.004,3.14687 -0.004,4.77544 -0.74122,0 -1.41594,0 -2.20597,0 0,-2.7949 0,-5.58307 -0.035,-8.43223 -0.0132,-2.3354 0.014,-4.60978 0.0286,-6.88423 0.01,-1.52279 0.002,-3.04569 0.002,-4.65369 1.77629,0.01 1.10524,1.74044 1.91612,2.34731 0.0937,-0.17729 0.22903,-0.4369 0.36763,-0.69471 0.83439,-1.55209 1.99349,-2.08866 3.73764,-1.7313 1.5053,0.30842 2.4656,1.4002 2.58157,3.04857 0.0647,0.91911 0.0116,1.84651 0.0116,2.81663 -0.61564,0 -1.24161,0 -2.04867,0 0,-0.65184 0.008,-1.32348 -0.002,-1.99484 -0.0122,-0.79619 -0.1,-1.58475 -0.96524,-1.93283 -0.82034,-0.33 -1.78494,0.0266 -2.42231,0.83537 -0.70087,0.88931 -0.92992,1.9361 -0.9394,3.03322 -0.0161,1.86041 0.002,3.72112 0.0332,5.66582 z"
   id="path120"
   style="stroke-width:0.166667" />
<path
   fill="#04aeb6"
   opacity="1"
   stroke="none"
   d="m 121.83925,20.69847 c 0.0365,-0.002 0.0508,-0.028 0.12411,0.0264 1.15719,0.0753 2.24103,0.0961 3.32488,0.11697 0.006,1.47104 0.0318,2.94233 0.0128,4.41304 -0.0159,1.22961 -0.66317,2.04039 -1.89243,2.26019 -0.66669,0.11921 -1.38623,0.13619 -2.05234,0.0239 -1.2653,-0.21339 -1.86717,-0.96441 -1.8943,-2.25312 -0.0302,-1.43553 -0.004,-2.87224 0.0914,-4.38201 0.789,-0.11126 1.48356,-0.14896 2.17812,-0.18665 0,0 0.0712,-0.0168 0.10771,-0.0187 z"
   id="path122"
   style="stroke-width:0.166667" />
<path
   fill="#e7e7e7"
   opacity="1"
   stroke="none"
   d="m 148.06823,13.66635 c 0.87417,-0.002 1.67097,-0.002 2.50834,-0.002 0,1.13194 0,2.19634 0,3.29927 -0.93822,0 -1.84212,0 -2.82314,0 0,-1.00581 -0.006,-2.01146 0.0103,-3.01674 10e-4,-0.0943 0.14795,-0.18611 0.30446,-0.28081 z"
   id="path124"
   style="stroke-width:0.166667" />
<path
   fill="#02acb4"
   opacity="1"
   stroke="none"
   d="m 160.16904,20.0692 c 1.58625,-0.0367 3.23311,-0.0463 4.93648,-0.0366 -1.58761,0.0341 -3.23174,0.0489 -4.93648,0.0366 z"
   id="path126"
   style="stroke-width:0.166667" />
<path
   fill="#495c63"
   opacity="1"
   stroke="none"
   d="m 121.65024,20.70013 c -0.61326,0.0547 -1.30782,0.0924 -2.07949,0.1263 -0.0771,-0.004 -0.0916,-0.0829 -0.0814,-0.12178 0.69999,-0.0331 1.3898,-0.0273 2.16091,-0.005 z"
   id="path128"
   style="stroke-width:0.166667" />
<path
   fill="#02acb4"
   opacity="1"
   stroke="none"
   d="m 117.2537,13.01798 c 0.0386,0.13311 0.0513,0.27987 0.0448,0.46382 -0.0364,-0.12525 -0.0535,-0.28771 -0.0448,-0.46382 z"
   id="path130"
   style="stroke-width:0.166667" />
<path
   fill="#02acb4"
   opacity="1"
   stroke="none"
   d="m 100.08696,13.01797 c 0.0385,0.13307 0.0512,0.27986 0.0447,0.46387 -0.0363,-0.12524 -0.0534,-0.2877 -0.0447,-0.46387 z"
   id="path132"
   style="stroke-width:0.166667" />
<path
   fill="#eeeeee"
   opacity="1"
   stroke="none"
   d="m 150.5406,26.36256 c 0.009,1.00929 0.009,1.93811 0.009,2.9182 -0.91649,0 -1.76003,0 -2.67315,0 0,-1.03936 0,-2.09827 0,-3.2592 0.81026,0 1.65422,-0.005 2.49777,0.0112 0.0538,0.001 0.10457,0.16253 0.16606,0.32984 z"
   id="path134"
   style="stroke-width:0.166667" />
<path
   fill="#010101"
   opacity="1"
   stroke="none"
   d="m 102.37514,20.77379 c -0.0175,-2.56561 -0.0639,-5.13152 -0.0375,-7.69668 0.01,-0.95474 0.63286,-1.70051 1.61554,-1.84531 0.91192,-0.13436 1.87935,-0.13863 2.78748,0.0112 1.10648,0.18255 1.54994,0.85686 1.64899,2.18436 0.006,0.39535 0.0299,0.67181 0.0541,0.94827 -0.0156,0.13019 -0.0311,0.26039 -0.0608,0.53901 -0.0142,2.01217 -0.0142,3.87592 -0.0142,5.85916 -2.0728,0 -4.03321,0 -5.99364,0 z"
   id="path136"
   style="fill:none;stroke-width:0.166667" />
<path
   fill="#09aab2"
   opacity="1"
   stroke="none"
   d="m 102.33552,20.83249 c 2.00005,-0.0587 3.96046,-0.0587 6.03326,-0.0587 0,-1.98324 0,-3.84699 0.0376,-5.76293 0.0471,3.34158 0.0792,6.7355 0.0553,10.12903 -0.01,1.42027 -0.63516,2.18718 -2.0384,2.39631 -0.82683,0.12322 -1.71702,0.0601 -2.54194,-0.10398 -0.99768,-0.19849 -1.55646,-1.00005 -1.57938,-2.07074 -0.0319,-1.48945 -0.007,-2.98014 0.0336,-4.52899 z"
   id="path138"
   style="stroke-width:0.166667" />
<path
   fill="#09aab2"
   opacity="1"
   stroke="none"
   d="m 108.45237,14.33328 c -0.0328,-0.23412 -0.0569,-0.51058 -0.0448,-0.83147 0.042,0.23343 0.0477,0.51128 0.0448,0.83147 z"
   id="path140"
   style="stroke-width:0.166667" />
<path
   fill="#495c63"
   opacity="1"
   stroke="none"
   d="m 125.26989,20.77302 c -1.0655,0.048 -2.14934,0.0272 -3.29311,-0.0417 1.05165,-0.0411 2.16321,-0.0341 3.29311,0.0417 z"
   id="path142"
   style="stroke-width:0.166667" />
<path
   fill="#020202"
   opacity="1"
   stroke="none"
   d="m 76.175313,11.24956 c 1.567922,0.18103 2.2341,0.8488 2.269909,2.41002 0.03964,1.72826 0.06682,3.46111 -0.02217,5.18569 -0.03172,0.61472 -0.419362,1.21108 -0.774607,1.83849 -1.537231,0.0167 -2.944398,0.0107 -4.351563,0.005 -0.0037,-3.08807 -0.0075,-6.17614 0.08316,-9.33116 0.99469,-0.0806 1.89498,-0.0942 2.795268,-0.1078 z"
   id="path144"
   style="fill:none;stroke-width:0.166667" />
<path
   fill="#489197"
   opacity="1"
   stroke="none"
   d="m 73.259373,20.73449 c 1.444672,-0.04 2.851839,-0.034 4.336305,-0.0211 -0.447485,0.20906 -0.958186,0.51445 -1.500433,0.58832 -0.762343,0.10386 -1.548888,0.0169 -2.323552,0.0487 -0.437165,0.018 -0.625235,-0.12991 -0.51232,-0.61598 z"
   id="path146"
   style="stroke-width:0.166667" />
<path
   fill="#489197"
   opacity="1"
   stroke="none"
   d="m 76.119425,11.20997 c -0.8444,0.0532 -1.74469,0.0668 -2.722402,0.0663 0.837225,-0.0447 1.751867,-0.0753 2.722402,-0.0663 z"
   id="path148"
   style="stroke-width:0.166667" />
</svg>
